<svg xmlns="http://www.w3.org/2000/svg" width="2in" height="2in" fill-rule="evenodd" clip-rule="evenodd" image-rendering="optimizeQuality" shape-rendering="geometricPrecision" text-rendering="geometricPrecision" viewBox="0 0 2000 2000" id="browser"><defs><linearGradient id="a" x1="125.118" x2="1874.88" y1="270.929" y2="1729.07" gradientUnits="userSpaceOnUse"><stop offset="0" stop-color="#08b6ff"></stop><stop offset=".012" stop-color="#2790ff"></stop><stop offset=".259" stop-color="#47c7ff"></stop><stop offset=".478" stop-color="#4cc9ff"></stop><stop offset=".8" stop-color="#4a9eff"></stop><stop offset=".929" stop-color="#466aff"></stop><stop offset="1" stop-color="#466aff"></stop></linearGradient></defs><path fill="url(#a)" d="M1802 1503l-123 0 71 146c8,18 1,40 -17,48l-111 54c-5,3 -10,4 -15,4 -14,0 -27,-8 -33,-20l-79 -163c-1,-1 -1,-2 -1,-2l-74 35c-5,3 -10,4 -16,4 -9,0 -19,-4 -26,-11 -7,-8 -10,-17 -10,-27l4 -68 -1174 0c-28,0 -51,-23 -51,-51l0 -978 0 -177c0,-29 23,-52 51,-52l1604 0c28,0 51,23 51,52l0 177 0 978c0,28 -23,51 -51,51zm-162 -3l0 0 0 0 0 0 0 0 0 0 -1 0 0 0c0,0 -1,0 -1,0 -1,0 -1,0 -1,0l-111 54c-1,0 -1,1 -1,1 -1,1 -1,2 0,3l79 162c0,1 2,2 3,2 0,0 0,0 1,-1l110 -54c2,0 2,-2 2,-3l-80 -163c0,0 0,-1 0,-1zm57 -30l105 0c10,0 18,-8 18,-18l0 -961 -1640 0 0 961c0,10 8,18 18,18l1176 0 16 -264c1,-19 17,-34 36,-34 7,0 15,2 21,7l300 207c11,7 16,19 16,32 -1,13 -9,25 -21,30l-45 22zm-271 -265c-1,0 -3,1 -3,3l-21 365c-1,0 0,1 0,2 1,1 2,1 4,0l322 -157c1,0 1,-1 1,-2 0,-1 0,-2 -1,-3l-300 -207c-1,0 -1,-1 -2,-1zm-121 77l-591 0c-9,0 -17,-8 -17,-17 0,-9 8,-17 17,-17l591 0c10,0 17,8 17,17 0,9 -7,17 -17,17zm0 -70l-591 0c-9,0 -17,-7 -17,-16 0,-9 8,-17 17,-17l591 0c10,0 17,8 17,17 0,9 -7,16 -17,16zm400 -180l-991 0c-9,0 -17,-8 -17,-17 0,-9 8,-16 17,-16l991 0c9,0 16,7 16,16 0,9 -7,17 -16,17zm0 -70l-991 0c-9,0 -17,-7 -17,-16 0,-9 8,-17 17,-17l991 0c9,0 16,8 16,17 0,9 -7,16 -16,16zm0 -180l-991 0c-9,0 -17,-8 -17,-17 0,-9 8,-16 17,-16l991 0c9,0 16,7 16,16 0,9 -7,17 -16,17zm0 -70l-991 0c-9,0 -17,-7 -17,-16 0,-9 8,-17 17,-17l991 0c9,0 16,8 16,17 0,9 -7,16 -16,16zm-1137 593l-273 0c-9,0 -16,-7 -16,-16l0 -117c0,-9 7,-17 16,-17l273 0c9,0 17,8 17,17l0 117c0,9 -8,16 -17,16zm-256 -33l240 0 0 -83 -240 0 0 83zm256 -217l-273 0c-9,0 -16,-7 -16,-16l0 -117c0,-9 7,-17 16,-17l273 0c9,0 17,8 17,17l0 117c0,9 -8,16 -17,16zm-256 -33l240 0 0 -83 -240 0 0 83zm256 -217l-273 0c-9,0 -16,-7 -16,-16l0 -117c0,-9 7,-17 16,-17l273 0c9,0 17,8 17,17l0 117c0,9 -8,16 -17,16zm-256 -33l240 0 0 -83 -240 0 0 83zm373 -336c-35,0 -63,-29 -63,-64 0,-35 28,-63 63,-63 17,0 33,7 45,19 12,12 19,27 19,44 0,35 -29,64 -64,64zm0 -94c-16,0 -30,14 -30,30 0,17 14,30 30,30 17,0 30,-13 30,-30 0,-16 -13,-30 -30,-30zm-168 94c-34,0 -63,-29 -63,-64 0,-35 29,-63 63,-63 17,0 33,7 45,19 12,12 19,27 19,44 0,35 -29,64 -64,64zm0 -94c-16,0 -29,14 -29,30 0,17 13,30 29,30 17,0 30,-13 30,-30 0,-16 -13,-30 -30,-30zm-167 94c-35,0 -64,-29 -64,-64 0,-35 29,-63 64,-63 17,0 32,7 44,19 12,12 19,27 19,44 0,35 -29,64 -63,64zm0 -94c-17,0 -30,14 -30,30 0,17 13,30 30,30 16,0 30,-13 30,-30 0,-16 -14,-30 -30,-30zm1470 115l0 -160c0,-10 -8,-19 -18,-19l-1604 0c-10,0 -18,9 -18,19l0 160 1640 0z"></path></svg>