<svg xmlns="http://www.w3.org/2000/svg" width="2in" height="2in" fill-rule="evenodd" clip-rule="evenodd" image-rendering="optimizeQuality" shape-rendering="geometricPrecision" text-rendering="geometricPrecision" viewBox="0 0 2000 2000" id="chip"><defs><linearGradient id="a" x1="82.461" x2="1917.54" y1="235.386" y2="1764.61" gradientUnits="userSpaceOnUse"><stop offset="0" stop-color="#08b6ff"></stop><stop offset=".012" stop-color="#2790ff"></stop><stop offset=".259" stop-color="#47c7ff"></stop><stop offset=".478" stop-color="#4cc9ff"></stop><stop offset=".8" stop-color="#4a9eff"></stop><stop offset=".929" stop-color="#466aff"></stop><stop offset="1" stop-color="#466aff"></stop></linearGradient></defs><path fill="url(#a)" d="M1402 1454l-139 0 0 77 105 104c3,3 5,7 5,12l0 95c0,9 -8,16 -17,16 -9,0 -17,-7 -17,-16l0 -88 -104 -105c-3,-3 -5,-7 -5,-12l0 -83 -108 0 0 268c0,9 -7,17 -16,17 -10,0 -17,-8 -17,-17l0 -268 -122 0 0 268c0,9 -8,17 -17,17 -9,0 -16,-8 -16,-17l0 -268 -108 0 0 98c0,4 -2,9 -5,12l-104 104 0 43c31,8 54,37 54,70 0,40 -32,72 -72,72 -39,0 -72,-32 -72,-72 0,-34 24,-62 56,-70l0 -50c0,-4 2,-8 5,-11l105 -105 0 -91 -195 0c-29,0 -52,-23 -52,-52l0 -177 -76 0 -99 100c-3,3 -8,5 -12,5l-75 0c-10,0 -17,-8 -17,-17 0,-9 7,-17 17,-17l68 0 100 -99c3,-4 7,-5 11,-5l83 0 0 -113 -262 0c-10,0 -17,-7 -17,-16 0,-10 7,-17 17,-17l262 0 0 -93 -248 0c-7,32 -36,55 -70,55 -39,0 -72,-32 -72,-72 0,-39 33,-72 72,-72 34,0 63,24 70,56l248 0 0 -108 -73 0c-4,0 -8,-2 -12,-5l-111 -112 -66 0c-10,0 -17,-7 -17,-16 0,-10 7,-17 17,-17l73 0c4,0 8,2 11,5l112 112 66 0 0 -181c0,-29 23,-52 52,-52l139 0 0 -77 -105 -104c-3,-3 -5,-7 -5,-12l0 -95c0,-9 8,-16 17,-16 9,0 17,7 17,16l0 88 104 105c3,3 5,7 5,12l0 83 108 0 0 -268c0,-9 7,-17 16,-17 10,0 17,8 17,17l0 268 122 0 0 -268c0,-9 8,-17 17,-17 9,0 17,8 17,17l0 268 107 0 0 -98c0,-4 2,-9 5,-12l104 -104 0 -43c-31,-8 -54,-37 -54,-70 0,-40 32,-72 72,-72 39,0 72,32 72,72 0,34 -24,62 -56,70l0 50c0,4 -2,8 -5,11l-105 105 0 91 195 0c29,0 52,23 52,52l0 164 76 0 99 -99c3,-4 8,-5 12,-5l75 0c10,0 17,7 17,16 0,10 -7,17 -17,17l-68 0 -100 100c-3,3 -7,5 -11,5l-83 0 0 112 262 0c10,0 17,7 17,17 0,9 -7,16 -17,16l-262 0 0 93 248 0c7,-31 36,-55 70,-55 39,0 72,32 72,72 0,40 -33,72 -72,72 -34,0 -63,-24 -70,-55l-248 0 0 107 73 0c4,0 8,2 12,5l111 112 66 0c10,0 17,7 17,17 0,9 -7,16 -17,16l-73 0c-4,0 -8,-1 -11,-5l-112 -111 -66 0 0 193c0,29 -23,52 -52,52zm-823 -659l0 0 0 1 0 140 0 127 0 145 0 194c0,10 9,19 19,19l804 0c10,0 19,-9 19,-19l0 -804c0,-10 -9,-19 -19,-19l-211 0 -141 0 -156 0 -141 0 -155 0c-10,0 -19,9 -19,19l0 197zm-351 103c-21,0 -38,17 -38,38 0,22 17,39 38,39 22,0 39,-17 39,-39 0,-21 -17,-38 -39,-38zm1544 114c-22,0 -39,18 -39,39l0 0c0,21 17,39 39,39 21,0 38,-18 38,-39 0,-21 -17,-39 -38,-39zm-1072 731l0 0 -1 0 0 0c-21,0 -38,17 -38,38 0,22 17,39 38,39 22,0 39,-17 39,-39 0,-21 -17,-38 -38,-38zm600 -1486l0 0 1 0c21,0 38,-17 38,-38 0,-22 -17,-39 -38,-39 -22,0 -39,17 -39,39 0,21 17,38 38,38zm-300 937c-107,0 -194,-87 -194,-194 0,-107 87,-194 194,-194 0,0 0,0 0,0 52,0 100,21 137,57 36,37 57,85 57,137 0,107 -87,194 -194,194zm0 -354c-88,0 -160,72 -160,160 0,88 72,160 160,160 88,0 160,-72 160,-160 0,-43 -16,-83 -47,-113 -30,-31 -70,-47 -113,-47z"></path></svg>