<svg xmlns="http://www.w3.org/2000/svg" width="2in" height="2in" fill-rule="evenodd" clip-rule="evenodd" image-rendering="optimizeQuality" shape-rendering="geometricPrecision" text-rendering="geometricPrecision" viewBox="0 0 2000 2000" id="binary-code"><defs><linearGradient id="a" x1="132.067" x2="1867.93" y1="276.724" y2="1723.28" gradientUnits="userSpaceOnUse"><stop offset="0" stop-color="#08b6ff"></stop><stop offset=".012" stop-color="#2790ff"></stop><stop offset=".259" stop-color="#47c7ff"></stop><stop offset=".478" stop-color="#4cc9ff"></stop><stop offset=".8" stop-color="#4a9eff"></stop><stop offset=".929" stop-color="#466aff"></stop><stop offset="1" stop-color="#466aff"></stop></linearGradient></defs><path fill="url(#a)" d="M1800 1398l-619 0 0 164 202 0c30,0 53,24 53,53l0 73c0,29 -23,53 -53,53l-766 0c-30,0 -53,-24 -53,-53l0 -73c0,-29 23,-53 53,-53l202 0 0 -164 -619 0c-30,0 -53,-24 -53,-53l0 -1033c0,-29 23,-53 53,-53l1600 0c30,0 53,24 53,53l0 1033c0,29 -23,53 -53,53zm-816 -323c-9,0 -16,-7 -16,-17l0 -191c0,-9 7,-16 16,-16 10,0 17,7 17,16l0 191c0,10 -7,17 -17,17zm-361 0c-9,0 -17,-7 -17,-17l0 -191c0,-9 8,-16 17,-16 9,0 16,7 16,16l0 191c0,10 -7,17 -16,17zm494 0c-10,0 -17,-7 -17,-17l0 -191c0,-9 7,-16 17,-16 9,0 16,7 16,16l0 191c0,10 -7,17 -16,17zm-225 0l-171 0c-9,0 -16,-7 -16,-17l0 -191c0,-9 7,-16 16,-16l171 0c9,0 16,7 16,16l0 191c0,10 -7,17 -16,17zm-154 -33l137 0 0 -158 -137 0 0 158zm639 33l-170 0c-9,0 -17,-7 -17,-17l0 -191c0,-9 8,-16 17,-16l170 0c9,0 17,7 17,16l0 191c0,10 -8,17 -17,17zm-153 -33l137 0 0 -158 -137 0 0 158zm-208 -290c-10,0 -17,-8 -17,-17l0 -191c0,-9 7,-17 17,-17 9,0 16,8 16,17l0 191c0,9 -7,17 -16,17zm361 0c-9,0 -16,-8 -16,-17l0 -191c0,-9 7,-17 16,-17 9,0 17,8 17,17l0 191c0,9 -8,17 -17,17zm-494 0c-9,0 -16,-8 -16,-17l0 -191c0,-9 7,-17 16,-17 10,0 17,8 17,17l0 191c0,9 -7,17 -17,17zm396 0l-171 0c-9,0 -16,-8 -16,-17l0 -191c0,-9 7,-17 16,-17l171 0c9,0 16,8 16,17l0 191c0,9 -7,17 -16,17zm-154 -34l137 0 0 -157 -137 0 0 157zm-332 34l-170 0c-9,0 -17,-8 -17,-17l0 -191c0,-9 8,-17 17,-17l170 0c9,0 17,8 17,17l0 191c0,9 -8,17 -17,17zm-154 -34l137 0 0 -157 -137 0 0 157zm454 587l-186 0c-9,0 -16,-7 -16,-16 0,-9 7,-17 16,-17l186 0c9,0 16,8 16,17 0,9 -7,16 -16,16zm-476 290c-11,0 -20,9 -20,20l0 73c0,11 9,20 20,20l766 0c11,0 20,-9 20,-20l0 -73c0,-11 -9,-20 -20,-20l-766 0zm531 -197l-296 0 0 164 296 0 0 -164zm576 -184l-1448 0c-9,0 -17,-7 -17,-16l0 -788c0,-9 8,-16 17,-16l1448 0c9,0 17,7 17,16l0 788c0,9 -8,16 -17,16zm-1432 -33l1416 0 0 -754 -1416 0 0 754zm-92 -889c-11,0 -20,9 -20,20l0 1033c0,11 9,20 20,20l635 0 330 0 635 0c11,0 20,-9 20,-20l0 -1033c0,-11 -9,-20 -20,-20l-1600 0z"></path></svg>