<svg xmlns="http://www.w3.org/2000/svg" width="2in" height="2in" fill-rule="evenodd" clip-rule="evenodd" image-rendering="optimizeQuality" shape-rendering="geometricPrecision" text-rendering="geometricPrecision" viewBox="0 0 2000 2000" id="atom"><defs><linearGradient id="a" x1="76.764" x2="1923.24" y1="230.634" y2="1769.37" gradientUnits="userSpaceOnUse"><stop offset="0" stop-color="#08b6ff"></stop><stop offset=".012" stop-color="#2790ff"></stop><stop offset=".259" stop-color="#47c7ff"></stop><stop offset=".478" stop-color="#4cc9ff"></stop><stop offset=".8" stop-color="#4a9eff"></stop><stop offset=".929" stop-color="#466aff"></stop><stop offset="1" stop-color="#466aff"></stop></linearGradient></defs><path fill="url(#a)" d="M1000 1149c-82,0 -149,-67 -149,-149 0,-82 67,-149 149,-149 82,0 149,67 149,149 0,82 -67,149 -149,149zm-592 -311c-28,0 -53,-13 -68,-33 -103,57 -160,126 -160,195 0,81 79,162 218,224 31,-73 74,-148 127,-224 -39,-55 -72,-110 -99,-164 -6,2 -12,2 -18,2zm-83 -63c-2,-7 -3,-15 -3,-22 0,-31 16,-58 41,-73 -37,-127 -25,-225 34,-283 68,-69 192,-73 348,-12 68,-154 158,-238 255,-238 83,0 160,61 224,177 7,-2 14,-3 22,-3 31,0 59,17 74,42 127,-37 225,-25 283,34 69,68 73,191 12,348 154,68 238,158 238,255 0,97 -84,187 -238,255 61,157 57,280 -12,348 -36,37 -87,55 -151,55 -39,0 -84,-7 -132,-21 -15,26 -43,43 -74,43 -8,0 -15,-1 -22,-3 -64,115 -141,176 -224,176 -97,0 -187,-84 -255,-238 -73,28 -140,43 -197,43 -63,0 -115,-18 -151,-55 -69,-68 -73,-191 -12,-348 -154,-68 -238,-158 -238,-255 0,-83 61,-161 178,-225zm69 -107c5,-1 9,-1 14,-1 31,0 59,17 74,42 56,-18 117,-33 182,-45 16,-91 39,-175 68,-248 -141,-55 -254,-53 -312,4 -48,49 -57,136 -26,248zm99 72c0,4 1,8 1,13 0,29 -15,55 -37,70 24,48 54,98 88,148 29,-40 61,-80 95,-120 4,-52 10,-103 18,-152 -59,11 -114,25 -165,41zm-85 -40c-6,0 -12,1 -17,3 -1,0 -2,1 -3,1 -1,0 -1,1 -1,1 -19,8 -32,26 -32,48 0,29 24,52 53,52 29,0 52,-23 52,-52 0,-29 -23,-53 -52,-53zm786 963c-21,-16 -34,-41 -34,-69 0,-7 1,-14 3,-21 -54,-27 -108,-60 -163,-98 -76,53 -151,96 -224,127 62,139 143,218 224,218 69,0 137,-56 194,-157zm-17 -120c15,-21 41,-34 69,-34 4,0 9,0 13,1 17,-52 31,-108 42,-168 -49,8 -100,14 -152,18 -40,34 -80,66 -120,95 50,34 100,64 148,88zm113 -22c25,15 42,42 42,73 0,4 -1,8 -1,11 112,32 200,23 249,-25 57,-58 59,-171 4,-312 -73,29 -157,52 -248,68 -12,66 -27,128 -46,185zm-44 21c-29,0 -53,23 -53,52 0,21 12,38 29,47 1,0 1,1 2,1l0 0c7,3 14,5 22,5 20,0 38,-12 47,-29 -1,-2 0,-4 0,-7 1,-2 2,-4 4,-6 1,-4 1,-7 1,-11 0,-29 -23,-52 -52,-52zm0 -1050c0,0 0,0 0,0 -29,0 -54,-14 -70,-35 -48,25 -97,54 -147,88 40,29 80,61 120,95 52,4 103,10 152,18 -11,-59 -25,-115 -42,-167 -4,1 -9,1 -13,1zm-84 -65c-1,-7 -2,-13 -2,-20 0,-28 13,-53 34,-69 -57,-102 -125,-158 -194,-158 -81,0 -162,79 -224,218 73,31 148,74 224,127 55,-38 109,-71 162,-98zm169 -32c0,4 1,8 1,12 0,31 -17,58 -41,73 18,56 33,118 45,184 91,16 175,39 248,68 55,-141 53,-254 -4,-312 -49,-48 -137,-57 -249,-25zm-85 -41c-29,0 -53,24 -53,53 0,29 24,52 53,52 6,0 12,-1 18,-3l0 0 0 0 1 0c19,-8 33,-27 33,-49 0,-29 -23,-53 -52,-53zm-275 1101c-40,-29 -80,-61 -120,-95 -52,-4 -103,-10 -152,-18 15,84 37,161 64,229 68,-29 138,-68 208,-116zm-162 -132c-23,-21 -45,-43 -67,-65 -22,-22 -44,-44 -65,-67 4,40 9,79 15,117 38,6 77,11 117,15zm-169 -174c-34,-40 -66,-80 -95,-120 -48,70 -87,140 -116,208 68,27 145,49 229,64 -8,-49 -14,-100 -18,-152zm-75 -149c23,31 47,62 72,93 -2,-31 -2,-62 -2,-93 0,-31 0,-63 2,-93 -26,31 -49,62 -72,93zm108 135c29,34 60,67 92,100 33,32 66,63 100,92 44,3 89,5 135,5 46,0 91,-2 136,-5 33,-29 66,-60 99,-92 32,-33 63,-66 92,-99 3,-45 5,-90 5,-136 0,-46 -2,-91 -5,-136 -29,-33 -60,-66 -92,-99 -33,-32 -66,-63 -99,-92 -45,-3 -90,-5 -136,-5 -46,0 -91,2 -136,5 -33,29 -66,60 -99,92 -32,33 -63,66 -92,99 -3,45 -5,90 -5,136 0,46 2,91 5,135zm234 228c31,25 62,49 93,72 31,-23 62,-46 93,-72 -30,2 -62,2 -93,2 -31,0 -62,0 -93,-2zm664 -126c-29,-68 -68,-138 -116,-208 -29,40 -61,81 -95,120 -4,52 -10,103 -18,152 84,-15 161,-37 229,-64zm-136 -237c-22,-31 -46,-62 -72,-93 2,30 2,62 2,93 0,31 0,63 -2,93 26,-31 50,-62 72,-93zm-342 -363c-31,-26 -62,-49 -93,-72 -31,23 -62,47 -93,72 31,-2 62,-2 93,-2 31,0 63,0 93,2zm-122 -92c-70,-48 -140,-87 -208,-116 -27,68 -49,145 -64,229 49,-8 100,-14 152,-18 40,-34 80,-66 120,-95zm220 132c23,21 45,43 67,65 22,22 44,44 65,67 -4,-40 -9,-79 -16,-117 -38,-6 -76,-11 -116,-15zm169 174c34,40 66,80 95,120 48,-70 87,-140 116,-208 -68,-27 -145,-49 -229,-64 8,49 14,100 18,152zm116 149c52,76 95,151 126,224 139,-62 218,-143 218,-224 0,-81 -79,-162 -218,-224 -31,73 -74,148 -126,224zm-812 336c-91,-16 -175,-39 -248,-68 -55,141 -53,254 4,312 58,57 171,59 312,4 -29,-73 -52,-157 -68,-248zm527 -13c40,-4 79,-9 116,-15 7,-38 12,-77 16,-117 -21,23 -43,45 -65,67 -22,22 -44,44 -67,65zm-382 -646c-40,4 -79,9 -117,16 -6,38 -11,76 -15,116 21,-23 43,-45 65,-67 22,-22 44,-44 67,-65zm191 207c-64,0 -116,52 -116,116 0,64 52,116 116,116 64,0 116,-52 116,-116 0,-64 -52,-116 -116,-116z"></path></svg>